# xmcd CD database file
#
# Track frame offsets:
#	150
#	9238
#	22320
#	33453
#	46920
#	61573
#	87830
#	107808
#	126065
#	142263
#	159670
#	176398
#	206740
#	221615
#	233643
#
# Disc length: 3330 seconds
#
# Revision: 2
# Processed by: cddbd v1.5.2PL0 Copyright (c) Steve Scherf et al.
# Submitted via: CDex 1.77
#
DISCID=c90d000f
DTITLE=Coaltrain - Gimme Soul
DYEAR=1991
DGENRE=Blues
TTITLE0=Sweet SoulMusic
TTITLE1=Fire and Water
TTITLE2=Knock on Wood
TTITLE3=Dont stop
TTITLE4=Hold on Im coming
TTITLE5=Sweet home Cicago
TTITLE6=Honky Tonk Woman
TTITLE7=Mustang Sally
TTITLE8=When a man loves a woman
TTITLE9=Gimme some loving
TTITLE10=Peter Gun
TTITLE11=Stormy Monday Blues
TTITLE12=Everybody needs somebody
TTITLE13=Im a soulman
TTITLE14=Proud Mary
EXTD=YEAR: 1991
EXTT0=
EXTT1=
EXTT2=
EXTT3=
EXTT4=
EXTT5=
EXTT6=
EXTT7=
EXTT8=
EXTT9=
EXTT10=
EXTT11=
EXTT12=
EXTT13=
EXTT14=
PLAYORDER=
